<svg width="12" height="12" viewBox="0 0 12 12" fill="none" xmlns="http://www.w3.org/2000/svg">
<path d="M10.8725 2.31375C10.7684 2.04406 10.6089 1.79917 10.4044 1.59486C10.1999 1.39055 9.9548 1.23134 9.685 1.1275C9.31351 0.989907 8.92113 0.917182 8.525 0.9125C7.86625 0.8825 7.66875 0.875 6 0.875C4.33125 0.875 4.13375 0.8825 3.475 0.9125C3.07845 0.917039 2.68564 0.989766 2.31375 1.1275C2.04406 1.23163 1.79917 1.39109 1.59486 1.59562C1.39055 1.80015 1.23134 2.0452 1.1275 2.315C0.989907 2.68649 0.917182 3.07887 0.9125 3.475C0.8825 4.13375 0.875 4.33125 0.875 6C0.875 7.66875 0.8825 7.86625 0.9125 8.525C0.917039 8.92155 0.989766 9.31436 1.1275 9.68625C1.23163 9.95594 1.39109 10.2008 1.59562 10.4051C1.80015 10.6094 2.0452 10.7687 2.315 10.8725C2.68649 11.0101 3.07887 11.0828 3.475 11.0875C4.13375 11.1175 4.33125 11.125 6 11.125C7.66875 11.125 7.86625 11.1175 8.525 11.0875C8.92155 11.083 9.31436 11.0102 9.68625 10.8725C9.95594 10.7684 10.2008 10.6089 10.4051 10.4044C10.6094 10.1999 10.7687 9.9548 10.8725 9.685C11.0101 9.31351 11.0828 8.92113 11.0875 8.525C11.1175 7.86625 11.125 7.66875 11.125 6C11.125 4.33125 11.1175 4.13375 11.0875 3.475C11.083 3.07845 11.0102 2.68564 10.8725 2.31375ZM6 9.21C5.36512 9.21 4.7445 9.02174 4.21662 8.66902C3.68874 8.3163 3.2773 7.81496 3.03435 7.22841C2.79139 6.64186 2.72782 5.99644 2.85168 5.37376C2.97554 4.75108 3.28126 4.17911 3.73019 3.73019C4.17911 3.28126 4.75108 2.97554 5.37376 2.85168C5.99644 2.72782 6.64186 2.79139 7.22841 3.03435C7.81496 3.2773 8.3163 3.68874 8.66902 4.21662C9.02174 4.7445 9.21 5.36512 9.21 6C9.21 6.85134 8.8718 7.66782 8.26981 8.26981C7.66782 8.8718 6.85134 9.21 6 9.21ZM9.33625 3.41375C9.18791 3.41375 9.04291 3.36976 8.91957 3.28735C8.79623 3.20494 8.70011 3.08781 8.64334 2.95076C8.58657 2.81372 8.57172 2.66292 8.60066 2.51743C8.6296 2.37195 8.70103 2.23831 8.80592 2.13342C8.91081 2.02853 9.04445 1.9571 9.18993 1.92816C9.33542 1.89922 9.48622 1.91407 9.62326 1.97084C9.76031 2.02761 9.87744 2.12374 9.95985 2.24707C10.0423 2.37041 10.0862 2.51541 10.0862 2.66375C10.0862 2.86266 10.0072 3.05343 9.86658 3.19408C9.72593 3.33473 9.53516 3.41375 9.33625 3.41375Z" fill="white"/>
</svg>
